<?xml version="1.0" standalone="no"?>
<!DOCTYPE svg PUBLIC "-//W3C//DTD SVG 1.0//EN" "http://www.w3.org/TR/2001/REC-SVG-20010904/DTD/svg10.dtd">
<svg xmlns="http://www.w3.org/2000/svg" xmlns:xlink="http://www.w3.org/1999/xlink" id="body_1" width="31" height="23">

<g transform="matrix(0.08098279 0 0 0.08098279 4.000001 -0)">
	<g>
		<g>
            <path d="M235.732 66.214L207.726 52.913L209.178 49.856C 215.532 36.476997 209.817 20.421999 196.43799 14.066998L196.43799 14.066998L172.316 2.611C 165.836 -0.46799994 158.545 -0.83599997 151.784 1.569C 145.024 3.975 139.606 8.87 136.528 15.351L136.528 15.351L135.076 18.407999L107.07 5.106C 92.417 -1.8520002 74.831 4.408 67.869995 19.061L67.869995 19.061L60.7 34.155C 59.562 36.551 59.423 39.301 60.312 41.799C 61.202 44.298 63.047 46.341 65.443 47.479L65.443 47.479L139.66101 82.729004L41.48101 82.729004C 38.68401 82.729004 36.01601 83.9 34.12301 85.95801C 32.229008 88.017006 31.284008 90.77301 31.516008 93.560005L31.516008 93.560005L44.659008 251.26599C 46.189007 269.628 61.821007 284.011 80.24701 284.011L80.24701 284.011L153.78702 284.011C 172.21202 284.011 187.84402 269.628 189.37402 251.26599L189.37402 251.26599L200.99202 111.85799L229.19702 125.25398C 230.58202 125.91198 232.04202 126.222984 233.48003 126.222984C 237.22003 126.222984 240.80803 124.11498 242.52002 120.51099L242.52002 120.51099L249.68903 105.417984C 256.646 90.761 250.386 73.175 235.732 66.214zM154.594 23.931C 155.37999 22.276 156.76399 21.026 158.48999 20.41C 160.219 19.796 162.07999 19.889 163.73499 20.677L163.73499 20.677L187.85599 32.132C 191.27399 33.756 192.734 37.858 191.111 41.276L191.111 41.276L189.659 44.333L153.14099 26.989L154.594 23.931zM169.441 249.604C 168.76799 257.681 161.89099 264.009 153.786 264.009L153.786 264.009L80.245995 264.009C 72.13999 264.009 65.26299 257.681 64.59 249.604L64.59 249.604L52.35 102.728L181.682 102.728L169.441 249.604zM231.62 96.835L228.74199 102.895L83.057 33.701L85.936 27.64C 88.16499 22.945 93.798996 20.942 98.49 23.171L98.49 23.171L227.151 84.279C 231.845 86.509 233.85 92.142 231.62 96.835z" stroke="none" fill="#000000" fill-rule="nonzero" />
		</g>
	</g>
	<g>
	</g>
	<g>
	</g>
	<g>
	</g>
	<g>
	</g>
	<g>
	</g>
	<g>
	</g>
	<g>
	</g>
	<g>
	</g>
	<g>
	</g>
	<g>
	</g>
	<g>
	</g>
	<g>
	</g>
	<g>
	</g>
	<g>
	</g>
	<g>
	</g>
</g>
</svg>