<?xml version="1.0" standalone="no"?>
<!DOCTYPE svg PUBLIC "-//W3C//DTD SVG 1.0//EN" "http://www.w3.org/TR/2001/REC-SVG-20010904/DTD/svg10.dtd">
<svg xmlns="http://www.w3.org/2000/svg" xmlns:xlink="http://www.w3.org/1999/xlink" id="body_1" width="31" height="23">

<g transform="matrix(0.044921875 0 0 0.044921875 4.000001 -0)">
	<g>
		<g>
            <path d="M480.6 341.4C 469.30002 341.4 460.2 350.5 460.2 361.8L460.2 361.8L460.2 460.19998L51.8 460.19998L51.8 361.8C 51.8 350.5 42.699997 341.4 31.4 341.4C 20.099998 341.4 11 350.5 11 361.8L11 361.8L11 480.59998C 11 491.89996 20.1 500.99997 31.4 500.99997L31.4 500.99997L480.6 500.99997C 491.9 500.99997 501 491.89996 501 480.59998L501 480.59998L501 361.8C 501 350.5 491.9 341.4 480.6 341.4z" stroke="none" fill="#000000" fill-rule="nonzero" />
            <path d="M241 365.6C 252.5 377.2 266.6 370.80002 270.9 365.6L270.9 365.6L388.2 239.40001C 395.90002 231.1 395.40002 218.20001 387.1 210.50002C 378.80002 202.80002 365.9 203.30002 358.30002 211.60002L358.30002 211.60002L276.40002 299.7L276.40002 34.5C 276.40002 23.2 267.30002 14.1 256.00003 14.1C 244.70003 14.1 235.60004 23.2 235.60004 34.5L235.60004 34.5L235.60004 299.8L153.70004 211.69998C 146.00005 203.39998 133.10004 202.99998 124.80004 210.59998C 116.50004 218.29997 116.100044 231.19998 123.70004 239.49997L123.70004 239.49997L241.00005 365.59998L241 365.6z" stroke="none" fill="#000000" fill-rule="nonzero" />
		</g>
	</g>
</g>
</svg>