<?xml version="1.0" standalone="no"?>
<!DOCTYPE svg PUBLIC "-//W3C//DTD SVG 1.0//EN" "http://www.w3.org/TR/2001/REC-SVG-20010904/DTD/svg10.dtd">
<svg xmlns="http://www.w3.org/2000/svg" xmlns:xlink="http://www.w3.org/1999/xlink" id="body_1" width="31" height="23">

<g transform="matrix(0.10557481 0 0 0.10557481 4 -0)">
    <path d="M215.658 53.55L164.305 2.196C 162.899 0.79 160.991 0 159.002 0C 157.013 0 155.105 0.79 153.699 2.196L153.699 2.196L3.809 152.086C 2.459 153.438 1.674 155.252 1.6159999 157.161L1.6159999 157.161L0.004999995 210.127C -0.058000006 212.194 0.736 214.196 2.198 215.659C 3.6069999 217.067 5.515 217.855 7.501 217.855C 7.577 217.855 7.653 217.85399 7.73 217.851L7.73 217.851L60.694 216.23799C 62.603 216.18 64.418 215.396 65.769 214.04599L65.769 214.04599L215.659 64.15698C 218.587 61.228 218.587 56.479 215.658 53.55zM57.264 201.336L15.240002 202.616L16.519001 160.59L107.643005 69.465L148.393 110.20799L57.264 201.336zM159 99.602L118.249 58.859997L159.001 18.106998L199.74701 58.854L159 99.602z" stroke="none" fill="#000000" fill-rule="nonzero" />
	<g>
	</g>
	<g>
	</g>
	<g>
	</g>
	<g>
	</g>
	<g>
	</g>
	<g>
	</g>
	<g>
	</g>
	<g>
	</g>
	<g>
	</g>
	<g>
	</g>
	<g>
	</g>
	<g>
	</g>
	<g>
	</g>
	<g>
	</g>
	<g>
	</g>
</g>
</svg>