<?xml version="1.0" standalone="no"?>
<!DOCTYPE svg PUBLIC "-//W3C//DTD SVG 1.0//EN" "http://www.w3.org/TR/2001/REC-SVG-20010904/DTD/svg10.dtd">
<svg xmlns="http://www.w3.org/2000/svg" xmlns:xlink="http://www.w3.org/1999/xlink" id="body_1" width="31" height="23">

<g transform="matrix(0.046945002 0 0 0.046945002 3.9999998 -0)">
	<g>
		<g>
			<g>
                <path d="M486.617 255.067C 491.217 248.767 491.017 240.167 486.117 234.067C 412.017 142.96701 332.017 96.767 248.21701 96.767C 106.117004 96.767 7.4170074 229.16699 3.3170166 234.767C -1.2829833 241.067 -1.0829835 249.66699 3.8170166 255.767C 77.81702 346.96698 157.81702 393.167 241.61702 393.167C 383.717 393.167 482.417 260.767 486.617 255.067zM241.617 358.867C 171.817 358.867 103.817 320.467 39.21701 244.867C 64.51701 214.96701 144.917 131.067 248.21701 131.067C 318.01703 131.067 386.01703 169.46701 450.617 245.067C 425.317 274.967 344.917 358.867 241.617 358.867z" stroke="none" fill="#000000" fill-rule="nonzero" />
                <path d="M244.917 157.867C 196.917 157.867 157.81702 196.96701 157.81702 244.96701C 157.81702 292.967 196.91702 332.06702 244.91702 332.06702C 292.91702 332.06702 332.01703 292.967 332.01703 244.96701C 332.01703 196.96701 292.917 157.867 244.917 157.867zM244.917 297.767C 215.817 297.767 192.117 274.067 192.117 244.967C 192.117 215.867 215.817 192.16699 244.917 192.16699C 274.01703 192.16699 297.717 215.86699 297.717 244.967C 297.717 274.06702 274.017 297.767 244.917 297.767z" stroke="none" fill="#000000" fill-rule="nonzero" />
			</g>
		</g>
		<g>
		</g>
		<g>
		</g>
		<g>
		</g>
		<g>
		</g>
		<g>
		</g>
		<g>
		</g>
		<g>
		</g>
		<g>
		</g>
		<g>
		</g>
		<g>
		</g>
		<g>
		</g>
		<g>
		</g>
		<g>
		</g>
		<g>
		</g>
		<g>
		</g>
	</g>
	<g>
	</g>
	<g>
	</g>
	<g>
	</g>
	<g>
	</g>
	<g>
	</g>
	<g>
	</g>
	<g>
	</g>
	<g>
	</g>
	<g>
	</g>
	<g>
	</g>
	<g>
	</g>
	<g>
	</g>
	<g>
	</g>
	<g>
	</g>
	<g>
	</g>
</g>
</svg>